<?xml version="1.0" standalone="no"?>
<!DOCTYPE svg PUBLIC "-//W3C//DTD SVG 20010904//EN"
 "http://www.w3.org/TR/2001/REC-SVG-20010904/DTD/svg10.dtd">
<svg version="1.0" xmlns="http://www.w3.org/2000/svg"
 width="86.000000pt" height="400.000000pt" viewBox="0 0 86.000000 400.000000"
 preserveAspectRatio="xMidYMid meet">
<metadata>
Created by potrace 1.13, written by Peter Selinger 2001-2015
</metadata>
<g transform="translate(0.000000,400.000000) scale(0.100000,-0.100000)"
fill="#000000" stroke="none">
<path d="M530 3813 c0 -10 7 -38 16 -62 13 -40 25 -88 41 -171 2 -14 4 -40 3
-57 0 -18 3 -33 7 -33 8 0 9 -22 12 -210 3 -163 -21 -355 -45 -364 -19 -7 -54
14 -55 34 0 10 -3 8 -9 -5 -8 -19 -9 -19 -9 3 -1 25 -17 59 -37 79 -24 24 -23
-3 1 -53 14 -27 25 -55 25 -61 0 -7 4 -13 9 -13 5 0 12 -14 16 -31 4 -17 13
-42 21 -57 18 -35 18 -60 -1 -96 -8 -15 -15 -34 -15 -42 0 -7 -12 -39 -26 -71
-43 -98 -76 -167 -85 -183 -5 -8 -12 -22 -15 -30 -4 -8 -24 -54 -45 -103 -22
-48 -39 -93 -39 -100 0 -7 -4 -17 -9 -23 -11 -12 -67 -177 -76 -224 -3 -19
-14 -57 -24 -85 -26 -72 -54 -193 -47 -204 4 -5 2 -12 -4 -16 -6 -4 -7 -11 -4
-17 4 -5 1 -20 -5 -31 -10 -21 -23 -107 -41 -287 -12 -110 -11 -448 2 -525 5
-33 11 -82 13 -110 2 -27 7 -66 11 -85 4 -19 8 -44 9 -55 2 -11 6 -33 9 -50 4
-16 12 -60 18 -97 6 -38 14 -68 19 -68 5 0 9 -12 9 -26 0 -35 30 -124 42 -124
5 0 8 30 7 68 -1 37 1 74 4 82 3 8 8 53 10 100 5 114 48 296 107 445 4 11 8
24 8 29 0 5 4 12 9 15 5 3 17 29 27 56 10 28 29 64 41 80 12 17 25 40 29 53 4
12 12 22 17 22 5 0 9 6 9 13 0 11 41 76 68 107 39 47 72 94 72 106 0 23 -15
16 -28 -13 -19 -42 -38 -72 -54 -86 -24 -20 -68 -85 -68 -100 0 -8 -6 -17 -13
-20 -10 -4 -84 -144 -133 -252 -15 -34 -61 -177 -68 -215 -3 -14 -12 -54 -20
-90 -14 -61 -23 -139 -31 -263 -2 -27 -5 -51 -8 -53 -5 -6 -29 96 -57 241 -75
389 -64 871 26 1245 23 96 70 259 88 310 9 25 19 52 21 61 4 20 40 109 64 164
10 22 26 58 35 80 10 22 33 70 52 107 19 36 34 73 34 81 0 8 10 34 23 58 13
24 33 74 45 111 24 75 22 88 -37 213 -2 6 6 1 18 -10 21 -18 25 -18 49 -4 29
16 30 17 53 219 15 137 3 373 -27 510 -3 14 -3 22 1 18 15 -14 71 -279 80
-378 11 -111 3 -346 -16 -475 -26 -178 -26 -188 -5 -320 20 -124 17 -261 -8
-405 -11 -55 -12 -88 -6 -94 6 -6 10 -19 10 -31 0 -12 4 -25 9 -31 15 -15 40
-153 41 -229 2 -75 -15 -165 -50 -259 -11 -32 -19 -61 -15 -64 3 -3 6 -3 8 -1
8 11 49 136 49 149 1 8 5 21 11 28 13 16 21 242 9 242 -5 0 -9 12 -9 28 -1 46
-11 91 -27 113 -8 12 -12 27 -10 34 3 6 -2 18 -10 25 -9 7 -13 17 -9 23 3 5 8
20 9 31 27 177 34 230 34 277 0 62 -25 254 -38 289 -6 15 -3 46 9 89 43 161
48 437 15 709 -4 34 -12 65 -17 68 -5 3 -7 9 -4 14 4 7 -9 69 -29 135 -2 6 -7
25 -11 43 -7 30 -25 45 -25 20 0 -6 -3 -9 -6 -5 -3 3 -2 13 4 22 9 17 1 49
-28 108 -15 31 -30 36 -30 10z"/>
<path d="M516 2285 c-9 -13 -16 -28 -16 -32 0 -5 -12 -25 -26 -46 -32 -48
-116 -207 -108 -207 3 0 -2 -7 -10 -16 -9 -8 -16 -21 -16 -29 0 -7 -11 -37
-24 -66 -30 -65 -79 -233 -102 -348 -16 -81 -16 -85 1 -98 38 -27 63 -17 85
35 12 26 25 56 30 67 5 11 17 38 27 60 9 22 19 43 21 48 2 4 -1 7 -7 7 -11 0
-51 -83 -51 -106 0 -8 -4 -14 -9 -14 -5 0 -12 -14 -16 -31 -9 -41 -38 -69 -64
-62 -17 4 -18 9 -10 30 5 14 11 44 13 67 2 22 6 48 8 56 3 8 15 53 27 100 13
47 27 93 32 102 5 10 9 26 9 35 0 10 7 27 15 37 8 11 15 28 15 38 0 10 4 18
10 18 5 0 9 3 8 8 -1 4 10 30 25 59 15 29 27 59 27 67 0 8 4 16 8 18 10 4 71
111 69 119 -1 4 5 15 14 25 9 11 20 29 23 41 9 28 37 38 52 18 9 -11 8 -30 -3
-76 -7 -33 -13 -65 -12 -72 1 -7 -1 -19 -4 -27 -3 -8 -16 -51 -27 -95 -22 -79
-77 -207 -92 -213 -4 -2 -8 -11 -8 -19 0 -9 -16 -38 -35 -64 -19 -27 -31 -49
-26 -49 15 0 75 89 105 155 15 33 33 73 41 88 8 16 15 34 15 40 0 7 11 46 24
88 32 102 49 211 36 243 -13 34 -52 35 -74 1z"/>
<path d="M577 1826 c-12 -13 -42 -64 -67 -113 -25 -48 -53 -96 -63 -106 -27
-27 -150 -290 -162 -347 -4 -19 -11 -37 -15 -40 -4 -3 -11 -25 -15 -50 -5 -30
-4 -42 3 -35 13 13 52 146 46 157 -3 4 -2 8 3 8 9 0 33 48 33 67 0 7 5 13 11
13 5 0 8 4 5 8 -3 5 5 28 18 53 44 85 88 164 95 169 18 13 52 81 45 91 -4 7
-3 9 4 5 6 -4 18 9 27 31 33 74 38 83 57 89 11 3 22 3 26 -1 11 -11 2 -148
-13 -195 -8 -25 -21 -67 -30 -95 -13 -43 -35 -85 -90 -174 -5 -9 -25 -38 -44
-65 -38 -55 -116 -208 -126 -249 -4 -15 -11 -27 -17 -27 -5 0 -7 -4 -4 -9 3
-5 0 -21 -8 -36 -8 -15 -12 -33 -10 -39 7 -19 -38 -36 -53 -21 -9 10 -8 34 6
107 10 51 17 95 15 97 -8 9 -17 -11 -30 -71 -25 -119 -14 -164 38 -156 15 2
26 13 32 33 8 27 20 56 60 150 40 95 73 157 115 219 98 147 124 196 148 281
25 86 32 128 33 191 0 84 -29 108 -73 60z"/>
</g>
</svg>
